<svg xmlns="http://www.w3.org/2000/svg" width="1200" height="800" viewBox="0 0 1200 800">
  <defs>
    <linearGradient id="bg" x1="0" y1="0" x2="1" y2="1">
      <stop offset="0" stop-color="#0f172a" />
      <stop offset="0.55" stop-color="#111827" />
      <stop offset="1" stop-color="#020617" />
    </linearGradient>
    <linearGradient id="accent" x1="0" y1="1" x2="1" y2="0">
      <stop offset="0" stop-color="#facc15" stop-opacity="0.25" />
      <stop offset="0.55" stop-color="#facc15" stop-opacity="0.55" />
      <stop offset="1" stop-color="#facc15" stop-opacity="0.15" />
    </linearGradient>
    <filter id="softGlow" x="-40%" y="-40%" width="180%" height="180%">
      <feGaussianBlur stdDeviation="18" result="blur" />
      <feColorMatrix
        in="blur"
        type="matrix"
        values="1 0 0 0 0
                0 1 0 0 0
                0 0 1 0 0
                0 0 0 0.9 0"
        result="blur2"
      />
      <feMerge>
        <feMergeNode in="blur2" />
        <feMergeNode in="SourceGraphic" />
      </feMerge>
    </filter>
  </defs>

  <rect width="1200" height="800" fill="url(#bg)" />

  <g opacity="0.9">
    <circle cx="260" cy="220" r="190" fill="#0b1220" />
    <circle cx="950" cy="560" r="240" fill="#0b1220" />
  </g>

  <g filter="url(#softGlow)">
    <path
      d="M 120 560 C 320 420, 420 640, 600 520 S 880 350, 1080 520"
      fill="none"
      stroke="url(#accent)"
      stroke-width="18"
      stroke-linecap="round"
    />
    <path
      d="M 160 610 C 360 470, 460 690, 640 570 S 920 400, 1120 570"
      fill="none"
      stroke="url(#accent)"
      stroke-width="8"
      stroke-linecap="round"
      opacity="0.8"
    />
  </g>

  <g opacity="0.95">
    <rect x="130" y="120" width="420" height="260" rx="24" fill="#0b1220" stroke="#1f2937" stroke-width="2" />
    <rect x="180" y="160" width="320" height="26" rx="13" fill="#111827" />
    <rect x="180" y="210" width="260" height="22" rx="11" fill="#111827" opacity="0.9" />
    <rect x="180" y="252" width="290" height="22" rx="11" fill="#111827" opacity="0.8" />
    <rect x="180" y="294" width="220" height="22" rx="11" fill="#111827" opacity="0.7" />
    <circle cx="510" cy="160" r="10" fill="#facc15" opacity="0.9" />
  </g>

  <g opacity="0.9">
    <circle cx="880" cy="260" r="110" fill="#0b1220" stroke="#1f2937" stroke-width="2" />
    <circle cx="880" cy="260" r="62" fill="#111827" />
    <path d="M 850 260 L 880 230 L 910 260 L 880 290 Z" fill="#facc15" opacity="0.8" />
  </g>
</svg>
